<svg xmlns="http://www.w3.org/2000/svg" viewBox="0 0 429.8 289.52"><defs><style>.cls-1{fill:#fff;}.cls-2{fill:#f6921e;}</style></defs><g id="Layer_2" data-name="Layer 2"><g id="Layer_1-2" data-name="Layer 1"><path class="cls-1" d="M16.27,269.34l-10-17h3.84L18,266.3l7.88-13.92h3.76l-10,17v11.43H16.27Z"/><path class="cls-1" d="M35,280.53a9.18,9.18,0,0,1-3.24-2.28,10.45,10.45,0,0,1-2.15-3.44,12.55,12.55,0,0,1,0-8.71,10.88,10.88,0,0,1,2.15-3.48A10.33,10.33,0,0,1,35,260.34a10.8,10.8,0,0,1,8.16,0,10.33,10.33,0,0,1,3.24,2.28,11,11,0,0,1,2.12,3.48,13,13,0,0,1,0,8.71,10.47,10.47,0,0,1-2.16,3.44,9.33,9.33,0,0,1-3.28,2.28,9.8,9.8,0,0,1-4.08.84A9.61,9.61,0,0,1,35,280.53Zm6.88-2.68a6.87,6.87,0,0,0,2.2-1.68,7.7,7.7,0,0,0,1.44-2.52,9.11,9.11,0,0,0,.52-3.2,9.47,9.47,0,0,0-.52-3.23,8.63,8.63,0,0,0-1.44-2.52,7.36,7.36,0,0,0-2.2-1.64,6.51,6.51,0,0,0-2.8-.6,6.34,6.34,0,0,0-2.76.6,6.89,6.89,0,0,0-2.2,1.64,7.91,7.91,0,0,0-1.48,2.52,9.47,9.47,0,0,0-.52,3.23,9.11,9.11,0,0,0,.52,3.2,7.12,7.12,0,0,0,1.48,2.52,6.46,6.46,0,0,0,2.2,1.68,6.34,6.34,0,0,0,2.76.6A6.51,6.51,0,0,0,41.86,277.85Z"/><path class="cls-1" d="M57.69,280.21a7.49,7.49,0,0,1-3-3.32,11.62,11.62,0,0,1-1-5.08V260.14h3.2v11.71a8.63,8.63,0,0,0,.68,3.52,4.85,4.85,0,0,0,1.88,2.28,5.18,5.18,0,0,0,2.88.8,5.4,5.4,0,0,0,2.91-.8,5.1,5.1,0,0,0,1.88-2.28,8.64,8.64,0,0,0,.64-3.52V260.14H71v11.67a11.13,11.13,0,0,1-1.08,5,7.66,7.66,0,0,1-3,3.32,8.67,8.67,0,0,1-4.6,1.2A8.77,8.77,0,0,1,57.69,280.21Z"/><path class="cls-1" d="M76.39,260.14h2.88l.2,3.84a7,7,0,0,1,2.28-3,6,6,0,0,1,3.56-1.08,11.4,11.4,0,0,1,1.24.08,5,5,0,0,1,.92.28l-.4,3a3.46,3.46,0,0,0-.92-.24,7.71,7.71,0,0,0-1,0,5.11,5.11,0,0,0-2.92.84,5.44,5.44,0,0,0-2,2.36,8.57,8.57,0,0,0-.72,3.64v10.95h-3.2Z"/><path class="cls-1" d="M100.46,252.38h3.36v12.84l13-12.84h4.4l-13.75,13.4,15.19,15h-4.84l-14-13.95v13.95h-3.36Z"/><path class="cls-1" d="M126,260.14h2.88l.16,3.28a7.3,7.3,0,0,1,2.68-2.84,7.74,7.74,0,0,1,4-1,7.4,7.4,0,0,1,4.12,1.12,7.57,7.57,0,0,1,2.71,3.16,12.21,12.21,0,0,1,.92,4.88v12.07h-3.19V268.9a7.57,7.57,0,0,0-1.32-4.76,4.7,4.7,0,0,0-3.84-1.68,5.82,5.82,0,0,0-3,.76,5.5,5.5,0,0,0-2.12,2.16,6.37,6.37,0,0,0-.76,3.16v12.23H126Z"/><path class="cls-1" d="M154,280.53a9.18,9.18,0,0,1-3.24-2.28,10.47,10.47,0,0,1-2.16-3.44,12.55,12.55,0,0,1,0-8.71,11.09,11.09,0,0,1,2.16-3.48,9.75,9.75,0,0,1,7.31-3.08,10.45,10.45,0,0,1,4.08.8,10.33,10.33,0,0,1,3.24,2.28,11,11,0,0,1,2.12,3.48,12.86,12.86,0,0,1,0,8.71,10.47,10.47,0,0,1-2.16,3.44,9.33,9.33,0,0,1-3.28,2.28,9.8,9.8,0,0,1-4.08.84A9.53,9.53,0,0,1,154,280.53Zm6.87-2.68a6.87,6.87,0,0,0,2.2-1.68,7.7,7.7,0,0,0,1.44-2.52,9.11,9.11,0,0,0,.52-3.2,9.47,9.47,0,0,0-.52-3.23,8.63,8.63,0,0,0-1.44-2.52,7.36,7.36,0,0,0-2.2-1.64,6.51,6.51,0,0,0-2.8-.6,6.34,6.34,0,0,0-2.76.6,7,7,0,0,0-2.19,1.64,7.91,7.91,0,0,0-1.48,2.52,9.47,9.47,0,0,0-.52,3.23,9.11,9.11,0,0,0,.52,3.2,7.12,7.12,0,0,0,1.48,2.52,6.52,6.52,0,0,0,2.19,1.68,6.34,6.34,0,0,0,2.76.6A6.51,6.51,0,0,0,160.9,277.85Z"/><path class="cls-1" d="M170.33,260.14h3.36l5.16,16.71,5.32-16.71h2.88l5.27,16.71,5.16-16.71h3.28l-7,20.63h-3.08l-5.15-16.51-5.2,16.51h-3.08Z"/><path class="cls-1" d="M204.27,251.11h3.2v29.66h-3.2Z"/><path class="cls-1" d="M218.26,280.57a9.09,9.09,0,0,1-3.31-2.28,10.47,10.47,0,0,1-2.16-3.44,11.75,11.75,0,0,1-.76-4.36,11.88,11.88,0,0,1,.76-4.35,10,10,0,0,1,2.08-3.44,9.43,9.43,0,0,1,3.11-2.32,9.81,9.81,0,0,1,3.92-.8,9.22,9.22,0,0,1,3.8.76,8.89,8.89,0,0,1,3,2.12,10.27,10.27,0,0,1,2,3.24,12.12,12.12,0,0,1,.68,4.08v1.31h-16a10,10,0,0,0,1.08,3.92,6.48,6.48,0,0,0,2.39,2.6,6.91,6.91,0,0,0,9.44-2.32l2.72,1.24a8.74,8.74,0,0,1-5,4.24,10.56,10.56,0,0,1-3.56.6A10.71,10.71,0,0,1,218.26,280.57Zm.68-17.47a6.54,6.54,0,0,0-2.24,2.2,9.06,9.06,0,0,0-1.19,3.32H228a8.07,8.07,0,0,0-1-3.32,6.32,6.32,0,0,0-2.16-2.2,5.88,5.88,0,0,0-5.92,0Z"/><path class="cls-1" d="M241,280.53a9,9,0,0,1-3.08-2.28,10.79,10.79,0,0,1-2-3.48,11.47,11.47,0,0,1-.76-4.28,11.66,11.66,0,0,1,.76-4.31,10.21,10.21,0,0,1,2.08-3.48,9.36,9.36,0,0,1,3.12-2.32,9,9,0,0,1,3.88-.84,8.58,8.58,0,0,1,4.27,1.08,8.11,8.11,0,0,1,3,3V251.11h3.2v29.66h-2.88l-.16-3.92a8.28,8.28,0,0,1-7.59,4.52A8.67,8.67,0,0,1,241,280.53Zm7.15-2.68a6.87,6.87,0,0,0,2.2-1.68,7.7,7.7,0,0,0,1.44-2.52,9.11,9.11,0,0,0,.52-3.2,9.47,9.47,0,0,0-.52-3.23,8.63,8.63,0,0,0-1.44-2.52,7.36,7.36,0,0,0-2.2-1.64,6.44,6.44,0,0,0-2.79-.6,6.34,6.34,0,0,0-2.76.6,6.89,6.89,0,0,0-2.2,1.64,7.91,7.91,0,0,0-1.48,2.52,9.47,9.47,0,0,0-.52,3.23,9.11,9.11,0,0,0,.52,3.2,7.12,7.12,0,0,0,1.48,2.52,6.46,6.46,0,0,0,2.2,1.68,6.34,6.34,0,0,0,2.76.6A6.44,6.44,0,0,0,248.12,277.85Z"/><path class="cls-1" d="M265.75,279.77a8.84,8.84,0,0,1-3-2.24,9.79,9.79,0,0,1-2-3.32,11.57,11.57,0,0,1-.72-4.11,11,11,0,0,1,.76-4.16,10.21,10.21,0,0,1,2-3.36,9.14,9.14,0,0,1,3.12-2.24,9.24,9.24,0,0,1,3.8-.8,8.49,8.49,0,0,1,4.32,1.12,7.93,7.93,0,0,1,3,3.08l.16-3.6H280V279a12.16,12.16,0,0,1-.72,4.28,9.47,9.47,0,0,1-2,3.36,8.63,8.63,0,0,1-3.16,2.12,10.44,10.44,0,0,1-4.08.75,10.84,10.84,0,0,1-3.68-.6,8.21,8.21,0,0,1-3-1.67,9.28,9.28,0,0,1-2.23-2.6l2.67-1.36a8,8,0,0,0,2.76,2.56,6.89,6.89,0,0,0,3.52.92,6.77,6.77,0,0,0,3.64-1,6.09,6.09,0,0,0,2.36-2.64,9.7,9.7,0,0,0,.8-4v-2.64a8.1,8.1,0,0,1-3,3,8.61,8.61,0,0,1-4.28,1.08A9.05,9.05,0,0,1,265.75,279.77Zm7.08-2.68a6.1,6.1,0,0,0,2.16-1.6,8,8,0,0,0,1.44-2.4,9.84,9.84,0,0,0,0-6.07,8.2,8.2,0,0,0-1.44-2.44,6,6,0,0,0-2.16-1.56,6.94,6.94,0,0,0-2.76-.56,6.75,6.75,0,0,0-2.72.56,6.14,6.14,0,0,0-2.2,1.56,7.35,7.35,0,0,0-1.4,2.44,9.12,9.12,0,0,0,0,6.07,7.16,7.16,0,0,0,1.4,2.4,6.24,6.24,0,0,0,2.2,1.6,6.75,6.75,0,0,0,2.72.56A6.94,6.94,0,0,0,272.83,277.09Z"/><path class="cls-1" d="M290.82,280.57a9.13,9.13,0,0,1-3.32-2.28,10.47,10.47,0,0,1-2.16-3.44,11.75,11.75,0,0,1-.76-4.36,11.88,11.88,0,0,1,.76-4.35,10,10,0,0,1,2.08-3.44,9.36,9.36,0,0,1,3.12-2.32,9.8,9.8,0,0,1,3.91-.8,9.22,9.22,0,0,1,3.8.76,8.89,8.89,0,0,1,3,2.12,10.27,10.27,0,0,1,2,3.24,12.12,12.12,0,0,1,.68,4.08v1.31h-16A10,10,0,0,0,289,275a6.57,6.57,0,0,0,2.4,2.6,6.78,6.78,0,0,0,3.51.92,6.85,6.85,0,0,0,3.44-.84,6.75,6.75,0,0,0,2.48-2.4l2.72,1.24a8.74,8.74,0,0,1-5,4.24,10.56,10.56,0,0,1-3.56.6A10.7,10.7,0,0,1,290.82,280.57Zm.68-17.47a6.54,6.54,0,0,0-2.24,2.2,8.9,8.9,0,0,0-1.2,3.32h12.51a8.07,8.07,0,0,0-1-3.32,6.32,6.32,0,0,0-2.16-2.2,5.86,5.86,0,0,0-5.91,0Z"/><path class="cls-1" d="M317.56,252.38h7.83a13.32,13.32,0,0,1,5.6,1.08,8.16,8.16,0,0,1,3.56,3.08,8.75,8.75,0,0,1,1.24,4.8,8.37,8.37,0,0,1-1.32,4.72,8.5,8.5,0,0,1-3.76,3.08,14.23,14.23,0,0,1-5.76,1.07c-.59,0-1.19,0-1.87-.07s-1.4-.12-2.16-.24v10.87h-3.36Zm3.36,14.52a15.84,15.84,0,0,0,2,.24c.68,0,1.32.08,1.91.08a8.71,8.71,0,0,0,5.52-1.56,5.15,5.15,0,0,0,2-4.36,5.73,5.73,0,0,0-.84-3.16,5.48,5.48,0,0,0-2.4-2,8.88,8.88,0,0,0-3.76-.72h-4.43Z"/><path class="cls-1" d="M344.78,280.53a9.18,9.18,0,0,1-3.24-2.28,10.45,10.45,0,0,1-2.15-3.44,12.55,12.55,0,0,1,0-8.71,10.88,10.88,0,0,1,2.15-3.48,10.33,10.33,0,0,1,3.24-2.28,10.8,10.8,0,0,1,8.16,0,10.33,10.33,0,0,1,3.24,2.28,10.78,10.78,0,0,1,2.11,3.48,12.86,12.86,0,0,1,0,8.71,10.29,10.29,0,0,1-2.15,3.44,9.33,9.33,0,0,1-3.28,2.28,9.8,9.8,0,0,1-4.08.84A9.61,9.61,0,0,1,344.78,280.53Zm6.88-2.68a6.87,6.87,0,0,0,2.2-1.68,7.7,7.7,0,0,0,1.44-2.52,9.11,9.11,0,0,0,.52-3.2,9.47,9.47,0,0,0-.52-3.23,8.63,8.63,0,0,0-1.44-2.52,7.36,7.36,0,0,0-2.2-1.64,6.51,6.51,0,0,0-2.8-.6,6.34,6.34,0,0,0-2.76.6,6.89,6.89,0,0,0-2.2,1.64,7.91,7.91,0,0,0-1.48,2.52,9.47,9.47,0,0,0-.52,3.23,9.11,9.11,0,0,0,.52,3.2,7.12,7.12,0,0,0,1.48,2.52,6.46,6.46,0,0,0,2.2,1.68,6.34,6.34,0,0,0,2.76.6A6.51,6.51,0,0,0,351.66,277.85Z"/><path class="cls-1" d="M363.65,260.14h2.88l.2,3.84a7,7,0,0,1,2.28-3,6,6,0,0,1,3.55-1.08,11.4,11.4,0,0,1,1.24.08,5,5,0,0,1,.92.28l-.4,3a3.46,3.46,0,0,0-.92-.24,7.71,7.71,0,0,0-1,0,5.1,5.1,0,0,0-2.91.84,5.44,5.44,0,0,0-2,2.36,8.57,8.57,0,0,0-.72,3.64v10.95h-3.2Z"/><path class="cls-1" d="M383.88,280.61a4.92,4.92,0,0,1-2.08-2.24,7.72,7.72,0,0,1-.76-3.6V262.86h-3.8v-2.72H381v-6.92h3.2v6.92h6.47v2.72h-6.47v11.75a4.53,4.53,0,0,0,.8,2.84,2.76,2.76,0,0,0,2.35,1,5.33,5.33,0,0,0,1.72-.28,5.86,5.86,0,0,0,1.52-.68l1,2.48a6.89,6.89,0,0,1-2,1,7.22,7.22,0,0,1-2.51.4A6.47,6.47,0,0,1,383.88,280.61Z"/><path class="cls-1" d="M397.91,280.53a6,6,0,0,1-2.6-2.24,6.25,6.25,0,0,1,.12-6.84,6.69,6.69,0,0,1,3-2.31,11.79,11.79,0,0,1,4.48-.8,14.73,14.73,0,0,1,2.91.32,11.37,11.37,0,0,1,2.64.84V268a6.33,6.33,0,0,0-.64-3,5.11,5.11,0,0,0-1.84-2,5.37,5.37,0,0,0-2.71-.68,5.79,5.79,0,0,0-3.24.88,5.29,5.29,0,0,0-2.08,2.48l-2.8-1a6.68,6.68,0,0,1,1.76-2.76,8.22,8.22,0,0,1,2.84-1.8,9.39,9.39,0,0,1,3.56-.64,9,9,0,0,1,4.35,1,7.58,7.58,0,0,1,2.88,3,9.37,9.37,0,0,1,1,4.48v12.71h-2.8l-.2-3.2a6.74,6.74,0,0,1-2.64,2.76,8.15,8.15,0,0,1-4.11,1A8.47,8.47,0,0,1,397.91,280.53Zm.28-3.68a3.79,3.79,0,0,0,1.68,1.36,6.1,6.1,0,0,0,2.48.48,6.2,6.2,0,0,0,3.11-.8,5.5,5.5,0,0,0,2.16-2.12,5.84,5.84,0,0,0,.8-3V272a16.81,16.81,0,0,0-2.64-.84,11.85,11.85,0,0,0-2.55-.27,6.91,6.91,0,0,0-4.12,1.07,3.42,3.42,0,0,0-1.52,2.92A3.38,3.38,0,0,0,398.19,276.85Z"/><path class="cls-1" d="M416.94,251.11h3.19v29.66h-3.19Z"/><circle class="cls-2" cx="226.04" cy="78.78" r="78.78"/><path class="cls-1" d="M15.5,110.31h2.85v21.43h10.7v2.61H15.5Z"/><path class="cls-1" d="M61.35,123.82a11.79,11.79,0,0,1,4.71,1v-1.28c0-2.68-1.56-4.74-4.4-4.74a4.7,4.7,0,0,0-4.51,2.84l-2.37-.81c1-2.91,4-4.4,6.91-4.4,4.27,0,7,2.84,7,7.18v10.76H66.29l-.17-2.71a6.19,6.19,0,0,1-5.72,3.22c-3.21,0-6.26-1.86-6.26-5.42C54.14,125.45,57.8,123.82,61.35,123.82Zm-.44,8.77a5,5,0,0,0,5.15-5v-.65a11.78,11.78,0,0,0-4.4-.94c-2.14,0-4.78.81-4.78,3.38C56.88,131.58,58.88,132.59,60.91,132.59Z"/><path class="cls-1" d="M98.06,116.88l.13,2.78a6.23,6.23,0,0,1,5.66-3.29c4.5,0,6.57,3.52,6.57,7.76v10.22h-2.71v-10c0-2.88-1.12-5.46-4.37-5.46a4.86,4.86,0,0,0-5,5.15v10.36H95.62V116.88Z"/><path class="cls-1" d="M140.08,109.23v15l8.26-7.31h3.49l-8.94,7.82,9.75,9.65h-3.72l-8.84-8.94v8.94h-2.71V109.23Z"/><path class="cls-1" d="M183.93,123.82a11.79,11.79,0,0,1,4.71,1v-1.28c0-2.68-1.56-4.74-4.41-4.74a4.7,4.7,0,0,0-4.5,2.84l-2.37-.81c1-2.91,4-4.4,6.91-4.4,4.26,0,7,2.84,7,7.18v10.76h-2.37l-.17-2.71a6.19,6.19,0,0,1-5.72,3.22c-3.22,0-6.26-1.86-6.26-5.42C176.72,125.45,180.37,123.82,183.93,123.82Zm-.44,8.77a5,5,0,0,0,5.15-5v-.65a11.83,11.83,0,0,0-4.41-.94c-2.13,0-4.77.81-4.77,3.38C179.46,131.58,181.46,132.59,183.49,132.59Z"/><path class="cls-1" d="M226.15,110.31c3.83,0,7.39,1.8,7.39,6.13a5.46,5.46,0,0,1-3.26,5.15,6,6,0,0,1,4.27,6c0,4.64-4,6.74-8.23,6.74h-7.85v-24ZM226,120.54c2.54,0,4.6-1,4.6-3.83s-2.06-3.86-4.6-3.86h-4.71v7.69Zm.24,11.27c2.84,0,5.38-1.18,5.38-4.36s-2.47-4.44-5.38-4.44h-4.95v8.8Z"/><path class="cls-1" d="M267.09,123.82a11.79,11.79,0,0,1,4.71,1v-1.28c0-2.68-1.56-4.74-4.4-4.74a4.7,4.7,0,0,0-4.51,2.84l-2.37-.81c1-2.91,4-4.4,6.91-4.4,4.27,0,7,2.84,7,7.18v10.76H272l-.17-2.71a6.21,6.21,0,0,1-5.73,3.22c-3.21,0-6.26-1.86-6.26-5.42C259.88,125.45,263.54,123.82,267.09,123.82Zm-.44,8.77a5,5,0,0,0,5.15-5v-.65a11.78,11.78,0,0,0-4.4-.94c-2.14,0-4.78.81-4.78,3.38C262.62,131.58,264.62,132.59,266.65,132.59Z"/><path class="cls-1" d="M303.8,116.88l.13,2.78a6.23,6.23,0,0,1,5.66-3.29c4.5,0,6.57,3.52,6.57,7.76v10.22h-2.71v-10c0-2.88-1.12-5.46-4.37-5.46a4.86,4.86,0,0,0-5,5.15v10.36h-2.71V116.88Z"/><path class="cls-1" d="M350.46,116.37a6.93,6.93,0,0,1,6.2,3.56l.13-3.05h2.44v16c0,5-3.08,8.91-8.47,8.91a8.41,8.41,0,0,1-7.58-4.13l2.27-1.15a6.2,6.2,0,0,0,5.31,2.94c3.83,0,5.76-2.78,5.76-6.47v-2.23a7,7,0,0,1-6.2,3.45c-4.84,0-8.09-4.16-8.09-8.87S345.48,116.37,350.46,116.37Zm.34,15.34c3.59,0,5.79-2.94,5.79-6.43s-2.07-6.44-5.79-6.44-5.79,3-5.79,6.44S347.14,131.71,350.8,131.71Z"/><path class="cls-1" d="M386.32,109.23H389v25.12h-2.71Z"/><path class="cls-1" d="M422.48,123.82a11.79,11.79,0,0,1,4.71,1v-1.28c0-2.68-1.56-4.74-4.4-4.74a4.7,4.7,0,0,0-4.51,2.84l-2.37-.81c1-2.91,4-4.4,6.91-4.4,4.27,0,7,2.84,7,7.18v10.76h-2.37l-.17-2.71a6.22,6.22,0,0,1-5.73,3.22c-3.21,0-6.26-1.86-6.26-5.42C415.27,125.45,418.93,123.82,422.48,123.82Zm-.44,8.77a5,5,0,0,0,5.15-5v-.65a11.78,11.78,0,0,0-4.4-.94c-2.14,0-4.78.81-4.78,3.38C418,131.58,420,132.59,422,132.59Z"/><path class="cls-1" d="M261.15,35s0,0,0-.06,0-.06,0-.09a.43.43,0,0,0,0,0v-.09a.43.43,0,0,0,0,0s0-.06,0-.09v0s0-.06,0-.09a.07.07,0,0,1,0,0,.3.3,0,0,1,0-.1v0l-.05-.12v0h0a1.5,1.5,0,0,0-.74-.77h-.05L226.58,19.63a1.38,1.38,0,0,0-1.09,0L191.78,33.36a1.45,1.45,0,0,0,0,2.68l18.37,7.48V83.29h0v.15a.41.41,0,0,0,0,.11v0l0,.11v0l0,.09,0,0,0,.09v0a.41.41,0,0,0,.07.11v0l0,0,14.45,19.08a1.45,1.45,0,0,0,2.3,0l14.45-19.08,0,0v0l.06-.11,0,0,0-.09v0a.36.36,0,0,0,0-.09v0l0-.11v0s0-.07,0-.11v0a.53.53,0,0,0,0-.13h0V43.52l7.21-2.94v6.6a3.6,3.6,0,0,0,0,6.6v2a1.45,1.45,0,1,0,2.89,0v-2a3.61,3.61,0,0,0,0-6.6V38.46h0v0h0s0,0,0-.07v-.08s0,0,0-.06,0,0,0-.06v0h0a.25.25,0,0,1,0-.07.09.09,0,0,1,0,0,.49.49,0,0,1,0-.11v0h0l-.06-.12v0l-.06-.1,0,0-.05-.07-.09-.11,0,0,0,0s0,0-.05,0l0,0h0l-.07-.06h0l-.11-.06h0l-.13-.06h0l-19.73-8a1.44,1.44,0,0,0-1.88.79,1.45,1.45,0,0,0,.79,1.89l16.44,6.69-6.81,2.78h0l-9.63,3.92h0L226,46.87l-4.25-1.73h0l-9.62-3.92h0l-16-6.51L226,22.52,255.92,34.7l-1.33.54a1.45,1.45,0,0,0,1.09,2.68L260.3,36h0l.07,0,.05,0,.06,0,.23-.17s0,0,0-.05l0,0a1.23,1.23,0,0,0,.22-.29v0a.16.16,0,0,0,0-.07.14.14,0,0,0,0-.06h0s0,0,0-.06a.14.14,0,0,0,0-.06A.31.31,0,0,0,261.15,35ZM232.3,47.44,239,44.69V78.47a3.37,3.37,0,0,1-6.74,0Zm-15.89,34.4A3.36,3.36,0,0,1,213,78.47V44.69l6.75,2.75v31A3.38,3.38,0,0,1,216.41,81.84ZM231.1,93.3H221l-6.48-8.56h23.08Zm20.2-42.82a.71.71,0,0,1-.72.71h0a.71.71,0,0,1,0-1.42h0A.71.71,0,0,1,251.3,50.48ZM226,49.88a1.45,1.45,0,0,0,.54-.11l2.83-1.15V78.47a3.37,3.37,0,1,1-6.74,0V48.62l2.82,1.15A1.5,1.5,0,0,0,226,49.88Z"/><path class="cls-2" d="M35.21,185.22a37.18,37.18,0,0,1-10.65,12.14,43.74,43.74,0,0,1-14.53,7,13.17,13.17,0,0,0,.18,3.07,11.08,11.08,0,0,0,.91,2.89,7.52,7.52,0,0,0,1.71,2.35A5.79,5.79,0,0,0,15.54,214a10.17,10.17,0,0,0,4.56-.14,18,18,0,0,0,5.41-2.34,34.51,34.51,0,0,0,5.82-4.65,48,48,0,0,0,5.87-7c1-1.38,1.83-2.74,2.62-4.06s1.5-2.59,2.16-3.79a1.23,1.23,0,0,1,.86-.5,1.36,1.36,0,0,1,.9.23,1.54,1.54,0,0,1,.59.72,1.24,1.24,0,0,1-.18,1.08c-.84,1.33-1.75,2.77-2.71,4.33s-2,3.21-3.2,4.92-2.47,3.43-3.88,5.15a47.55,47.55,0,0,1-4.74,4.92,23.45,23.45,0,0,1-5.06,3.56,20.63,20.63,0,0,1-4.6,1.72,20,20,0,0,1-3.88.54c-1.14,0-2.08,0-2.8,0q-6.13,0-9.56-3.25A12.49,12.49,0,0,1,0,206.61a25,25,0,0,1,1.86-10.24,48.25,48.25,0,0,1,6.54-11.06,31.53,31.53,0,0,1,3.88-4.11,40,40,0,0,1,5.41-4.1A30.5,30.5,0,0,1,24,174a18.79,18.79,0,0,1,6.68-1.09,6.93,6.93,0,0,1,3.75,1,5.82,5.82,0,0,1,2.3,2.66,7.13,7.13,0,0,1,.4,3.88A11.91,11.91,0,0,1,35.21,185.22ZM10.48,201.1a.8.8,0,0,0-.09.36,38.17,38.17,0,0,0,13.18-6.63,34.74,34.74,0,0,0,9.48-11.42,5.9,5.9,0,0,0,.63-4.46c-.42-1.24-1.48-1.7-3.16-1.4A15.94,15.94,0,0,0,23.39,181a34.48,34.48,0,0,0-6,6.22A44.83,44.83,0,0,0,13,194.47,36.59,36.59,0,0,0,10.48,201.1Z"/><path class="cls-2" d="M61.84,193.34v-2.71H84.58v2.71Z"/><path class="cls-2" d="M93.25,225.56a1.27,1.27,0,0,1-.28-1.71,1.34,1.34,0,0,1,1.72-.54l1.62-.55q-.09-.18.18-.63,4-5.32,8.89-12.68t9.93-15.52q5-8.18,9.7-16.61t8.22-16a108,108,0,0,0,5.41-13.81q1.91-6.23,1.45-9.93c.06-.42.57-.34,1.53.23a25.55,25.55,0,0,1,3.16,2.26,26,26,0,0,1,3.07,2.93c.9,1,1.35,1.75,1.35,2.17q0,2.61-2.12,7.94a120.78,120.78,0,0,1-5.77,12.14q-3.66,6.81-8.53,14.62t-10.29,15.48Q117.07,203,111.43,210a137.86,137.86,0,0,1-11,12.09,53.08,53.08,0,0,1,10.28.32Q116.53,223,123,224t13.54,1.85q7,.9,14.12,1.09a85.27,85.27,0,0,0,13.9-.77,46.28,46.28,0,0,0,12.95-3.75c.36,0,.51.33.45,1a10.57,10.57,0,0,1-.49,2.25,14.55,14.55,0,0,1-1,2.44,3.38,3.38,0,0,1-1.17,1.44A22.2,22.2,0,0,1,164.5,234a59.37,59.37,0,0,1-13.76.32,128.93,128.93,0,0,1-15.39-2.3q-8-1.68-15.62-3.34T105.25,226A44.85,44.85,0,0,0,93.25,225.56Z"/><path class="cls-2" d="M180.25,185.22a37.42,37.42,0,0,1-10.65,12.14,43.83,43.83,0,0,1-14.53,7,13.17,13.17,0,0,0,.18,3.07,11.45,11.45,0,0,0,.9,2.89,7.4,7.4,0,0,0,1.72,2.35,5.75,5.75,0,0,0,2.7,1.35,10.17,10.17,0,0,0,4.56-.14,18.07,18.07,0,0,0,5.42-2.34,35.33,35.33,0,0,0,5.82-4.65,47.92,47.92,0,0,0,5.86-7c1-1.38,1.84-2.74,2.62-4.06s1.51-2.59,2.17-3.79a1.21,1.21,0,0,1,.86-.5,1.36,1.36,0,0,1,.9.23,1.52,1.52,0,0,1,.58.72,1.24,1.24,0,0,1-.18,1.08q-1.26,2-2.7,4.33c-1,1.57-2,3.21-3.21,4.92s-2.47,3.43-3.88,5.15a45.55,45.55,0,0,1-4.74,4.92,23.4,23.4,0,0,1-5.05,3.56,21,21,0,0,1-4.6,1.72,20.07,20.07,0,0,1-3.88.54c-1.15,0-2.08,0-2.8,0-4.1,0-7.28-1.08-9.57-3.25a12.44,12.44,0,0,1-3.7-8.84,25.12,25.12,0,0,1,1.85-10.24,48.25,48.25,0,0,1,6.54-11.06,33,33,0,0,1,3.88-4.11,40.08,40.08,0,0,1,5.42-4.1,30.26,30.26,0,0,1,6.32-3.07,18.75,18.75,0,0,1,6.68-1.09,6.89,6.89,0,0,1,3.74,1,5.82,5.82,0,0,1,2.3,2.66,7.12,7.12,0,0,1,.41,3.88A12.06,12.06,0,0,1,180.25,185.22ZM155.52,201.1a.8.8,0,0,0-.09.36,38.35,38.35,0,0,0,13.18-6.63,34.6,34.6,0,0,0,9.47-11.42,5.86,5.86,0,0,0,.63-4.46c-.42-1.24-1.47-1.7-3.15-1.4a15.89,15.89,0,0,0-7.13,3.43,34.14,34.14,0,0,0-6,6.22,44.14,44.14,0,0,0-4.42,7.27A35.16,35.16,0,0,0,155.52,201.1Z"/><path class="cls-2" d="M222,185.31a1.18,1.18,0,0,1-.46,1,1.75,1.75,0,0,1-.94.41,1,1,0,0,1-.86-.32,1.47,1.47,0,0,1-.36-1.08c-.12-.6-.23-1.37-.32-2.3a10.48,10.48,0,0,0-.63-2.71,6,6,0,0,0-1.58-2.3,4.84,4.84,0,0,0-3.16-1.08,10.9,10.9,0,0,0-4.92,1,18.28,18.28,0,0,0-4.55,3,30,30,0,0,0-4.07,4.37,49.52,49.52,0,0,0-3.43,5.15,48.87,48.87,0,0,0-2.66,5.32,42,42,0,0,0-1.76,4.92,24.05,24.05,0,0,0-.72,3.7,11.11,11.11,0,0,0,.18,4,4.62,4.62,0,0,0,1.9,2.84c1,.66,2.46.76,4.51.27a9.84,9.84,0,0,0,3.52-2.07,45.62,45.62,0,0,0,4.2-4,60.41,60.41,0,0,0,4-4.83c1.27-1.68,2.29-3.16,3.07-4.42.66-1.74,1.22-3.43,1.67-5a26,26,0,0,0,.86-4.25A3,3,0,0,1,218,187a10.67,10.67,0,0,1,2.89,1.81,9.11,9.11,0,0,1,2.17,2.71,3.78,3.78,0,0,1,.36,3l-1.31,3.24c-.51,1.27-1,2.56-1.53,3.89s-1,2.63-1.45,3.92a19.2,19.2,0,0,0-.9,3.52,7.3,7.3,0,0,0,0,2.57,1.27,1.27,0,0,0,1.22,1.09h1.08a15,15,0,0,0,5.73-3.25,38.4,38.4,0,0,0,5-5.33,64.87,64.87,0,0,0,4.24-6.22q1.94-3.25,3.56-6a1,1,0,0,1,.82-.5,1.43,1.43,0,0,1,.94.23,1.54,1.54,0,0,1,.59.72,1.24,1.24,0,0,1-.18,1.08c-1.2,1.87-2.38,3.76-3.52,5.69S235.3,203,234,204.8s-2.6,3.56-4,5.24a35.37,35.37,0,0,1-4.64,4.6c-.43.36-.95.78-1.58,1.27a15.48,15.48,0,0,1-2.17,1.35,14.45,14.45,0,0,1-2.62,1,9,9,0,0,1-3,.31,8.19,8.19,0,0,1-4.11-1.26,6.9,6.9,0,0,1-2.39-2.8,9.41,9.41,0,0,1-.86-3.88,15.21,15.21,0,0,1,.59-4.42c-1.2,1.5-2.48,3-3.84,4.42a37.7,37.7,0,0,1-4.19,3.88,21.51,21.51,0,0,1-4.43,2.75,8.64,8.64,0,0,1-4.42.86,9.53,9.53,0,0,1-9.11-5.77,13.27,13.27,0,0,1-1.13-4.7,19,19,0,0,1,.13-4.06,30.35,30.35,0,0,1,2-6.95,44,44,0,0,1,4-7.53,51.09,51.09,0,0,1,5.64-7.14,35.57,35.57,0,0,1,6.86-5.68,25.1,25.1,0,0,1,7.63-3.25,16.56,16.56,0,0,1,8.12.13,6.43,6.43,0,0,1,2.93,1.77,8.58,8.58,0,0,1,1.76,2.88,14.31,14.31,0,0,1,.82,3.61A27.5,27.5,0,0,1,222,185.31Z"/><path class="cls-2" d="M270.41,203a66.45,66.45,0,0,1-4.33,5.5,40.94,40.94,0,0,1-5.24,5.06,26.68,26.68,0,0,1-5.95,3.65,13.9,13.9,0,0,1-6.5,1.22,6.13,6.13,0,0,1-5-2.52,8.78,8.78,0,0,1-1.54-5.42,16.52,16.52,0,0,1,1-5.23,26.59,26.59,0,0,1,2.31-4.74q1.4-2.31,3.06-4.56c1.12-1.5,2.27-3.07,3.48-4.69.78-1.09,1.56-2.15,2.35-3.21s1.44-2,2-2.8a18.31,18.31,0,0,0,1.17-1.94q.36-.72,0-.63c-.9.12-1.67.26-2.3.41s-1.22.3-1.76.45a10.15,10.15,0,0,1-1.71.32c-.6.06-1.33.08-2.17.08h-.9a4.56,4.56,0,0,1-.9-.08c-1.39,1.92-2.71,3.85-4,5.77s-2.47,3.79-3.61,5.6a1,1,0,0,1-.77.49,1.26,1.26,0,0,1-1.4-.9,1.22,1.22,0,0,1,.27-1.13q1.8-2.88,3.38-5.55c1.06-1.77,2.18-3.56,3.39-5.37a3.51,3.51,0,0,1-1.17-3.65,18.05,18.05,0,0,1,1.8-4.88c.9-1.71,1.87-3.35,2.89-4.92a21.39,21.39,0,0,0,2.08-3.79,19.3,19.3,0,0,1,2.21,1.13,6.5,6.5,0,0,1,1.85,1.63,4.8,4.8,0,0,1,.9,2.34,6.89,6.89,0,0,1-.63,3.39l-3.79,5.5c-.24.36,0,.49.63.36a23.53,23.53,0,0,0,2.8-.76c1.2-.39,2.54-.87,4-1.45s2.9-1.15,4.29-1.76,2.6-1.18,3.65-1.76a7.77,7.77,0,0,0,2-1.4,1.6,1.6,0,0,1,.76.36l1.09.82a10.53,10.53,0,0,1,1,.9l.55.54c.6.9.58,2.09-.05,3.57a31,31,0,0,1-2.93,5.1c-1.33,1.92-2.89,4-4.7,6.18s-3.58,4.47-5.32,6.81c-.6.72-1.27,1.58-2,2.57s-1.41,2-2.07,3.07a27.86,27.86,0,0,0-1.72,3.12,10,10,0,0,0-.9,2.79,2.59,2.59,0,0,0,.41,2,3,3,0,0,0,2.3.85,5.94,5.94,0,0,0,2.84-.67,21.06,21.06,0,0,0,3.57-2.17,34.61,34.61,0,0,0,3.79-3.29,32.41,32.41,0,0,0,3.43-4.07c1.2-1.74,2.3-3.43,3.29-5.05s1.82-3,2.48-4.24a1.23,1.23,0,0,1,.86-.5,1.36,1.36,0,0,1,.9.23,1.29,1.29,0,0,1,.54.72,1.39,1.39,0,0,1-.22,1.08c-1,1.57-2,3.16-2.89,4.79S271.43,201.5,270.41,203Z"/><path class="cls-2" d="M314.18,206.29a58.38,58.38,0,0,1-4.73,5.64,32.71,32.71,0,0,1-5.46,4.65,10,10,0,0,1-5.6,1.94,8.79,8.79,0,0,1-3-.54,7,7,0,0,1-2.58-1.62,7.71,7.71,0,0,1-1.71-2.8,10.58,10.58,0,0,1-.54-4.06,24.31,24.31,0,0,1,.63-4.65c.36-1.53.83-3.16,1.4-4.87s1.28-3.58,2.12-5.6,1.77-4.26,2.8-6.72a36.59,36.59,0,0,0,1.53-4.29,4.8,4.8,0,0,0,.18-2.84c-.24-.61-.87-.71-1.89-.32a19.58,19.58,0,0,0-4.7,3.29q-3.51,3.17-6.22,6.05t-5.6,6.41a88.29,88.29,0,0,0-3.79,10.6,57.65,57.65,0,0,0-2,11.33q0,.63-1,.36a9.72,9.72,0,0,1-2.21-.95,11.36,11.36,0,0,1-2.21-1.58,2.93,2.93,0,0,1-1.08-1.62,48.1,48.1,0,0,1,1.67-10.42q1.4-5.1,3.2-10.2t3.79-10.16q2-5.06,3.52-10.2a3,3,0,0,1,2.39.14,9.93,9.93,0,0,1,2.85,1.76,9.24,9.24,0,0,1,2.16,2.71,3.78,3.78,0,0,1,.36,3,10.24,10.24,0,0,1-.72,1.89c-.3.6-.63,1.24-1,1.9,1.26-1.39,2.62-2.74,4.06-4.06a42.15,42.15,0,0,1,4.42-3.57,25.42,25.42,0,0,1,4.6-2.57,15.43,15.43,0,0,1,4.79-1.18,3.84,3.84,0,0,1,2.12.77,8.48,8.48,0,0,1,2,1.9,8.63,8.63,0,0,1,1.31,2.39,3.29,3.29,0,0,1,.09,2.26q-2.25,6.13-4.15,10.33c-1.26,2.8-2.38,5.3-3.34,7.49a55,55,0,0,0-2.34,6.32,31.2,31.2,0,0,0-1.18,6.81,2.58,2.58,0,0,0,.09.63,1.2,1.2,0,0,0,.41.64,1.44,1.44,0,0,0,.95.27,4.15,4.15,0,0,0,1.62-.45,30.5,30.5,0,0,0,6.27-4.43,41.8,41.8,0,0,0,7.18-8.39q1.35-2,2.48-3.93c.75-1.29,1.49-2.54,2.21-3.74a1,1,0,0,1,.77-.5,1.36,1.36,0,0,1,.9.23,1.29,1.29,0,0,1,.54.72,1.39,1.39,0,0,1-.22,1.08l-4.7,7.85Q316.35,203.36,314.18,206.29Z"/><path class="cls-2" d="M328.44,173.12a3,3,0,0,1,2.4.14,8.61,8.61,0,0,1,4.6,4.47,3.57,3.57,0,0,1,0,3,39,39,0,0,1-2.21,4.06q-1.66,2.79-3.61,6.36t-3.92,7.36a64.92,64.92,0,0,0-3.21,6.95,21.82,21.82,0,0,0-1.44,5.19c-.15,1.35.31,2.06,1.4,2.12h1a17,17,0,0,0,6-3.12,41.35,41.35,0,0,0,5.28-5,74.27,74.27,0,0,0,4.69-5.86c1.47-2,2.84-4,4.11-5.78a1.29,1.29,0,0,1,.9-.5,1.51,1.51,0,0,1,.9.18,1.05,1.05,0,0,1,.45.73,1.43,1.43,0,0,1-.45,1.13q-3.8,5.86-7.76,10.87a54.46,54.46,0,0,1-9.48,9.25l-1.71,1.27a13.52,13.52,0,0,1-2.26,1.3,16.48,16.48,0,0,1-2.75,1,11.44,11.44,0,0,1-3,.4,5,5,0,0,1-3.07-1.08,5.68,5.68,0,0,1-1.72-2.62,10.25,10.25,0,0,1-.45-3.7,17.8,17.8,0,0,1,.81-4.42,64.34,64.34,0,0,1,2.8-7.67q1.89-4.43,4.06-9.07t4.24-9.12Q327.19,176.46,328.44,173.12Zm8.67-24.91a3.53,3.53,0,0,1,2.16.91,21,21,0,0,1,2.67,2.34,18.18,18.18,0,0,1,2.21,2.76,4.71,4.71,0,0,1,.9,1.94,19,19,0,0,1-1.31,3.47c-.57,1.18-1.17,2.38-1.8,3.61s-1.25,2.45-1.85,3.66a16.94,16.94,0,0,0-1.36,3.61,3.18,3.18,0,0,1-1.58-.81,11.44,11.44,0,0,1-1.58-1.67,14,14,0,0,1-1.21-1.9,3.6,3.6,0,0,1-.5-1.67,22,22,0,0,1,.54-3.52c.3-1.32.65-2.71,1-4.15s.75-2.9,1.08-4.38A24.21,24.21,0,0,0,337.11,148.21Z"/><path class="cls-2" d="M384,206.29a57.08,57.08,0,0,1-4.74,5.64,31.93,31.93,0,0,1-5.46,4.65,10,10,0,0,1-5.6,1.94,8.79,8.79,0,0,1-3-.54,6.94,6.94,0,0,1-2.57-1.62,7.73,7.73,0,0,1-1.72-2.8,10.58,10.58,0,0,1-.54-4.06,24.31,24.31,0,0,1,.63-4.65c.37-1.53.83-3.16,1.4-4.87s1.28-3.58,2.12-5.6,1.78-4.26,2.8-6.72a36.79,36.79,0,0,0,1.54-4.29,4.8,4.8,0,0,0,.18-2.84c-.24-.61-.88-.71-1.9-.32a19.59,19.59,0,0,0-4.69,3.29q-3.53,3.17-6.23,6.05t-5.6,6.41a90.06,90.06,0,0,0-3.79,10.6,56.93,56.93,0,0,0-2,11.33q0,.63-1,.36a9.78,9.78,0,0,1-2.22-.95,11.67,11.67,0,0,1-2.21-1.58,2.93,2.93,0,0,1-1.08-1.62A48.71,48.71,0,0,1,340,203.68q1.4-5.1,3.2-10.2t3.8-10.16q2-5.06,3.51-10.2a3,3,0,0,1,2.4.14,9.88,9.88,0,0,1,2.84,1.76,9.44,9.44,0,0,1,2.17,2.71,3.78,3.78,0,0,1,.36,3,10.27,10.27,0,0,1-.73,1.89c-.3.6-.63,1.24-1,1.9q1.9-2.08,4.06-4.06a42.24,42.24,0,0,1,4.43-3.57,24.77,24.77,0,0,1,4.6-2.57,15.37,15.37,0,0,1,4.78-1.18,3.84,3.84,0,0,1,2.12.77,8.53,8.53,0,0,1,2,1.9,8.89,8.89,0,0,1,1.31,2.39,3.29,3.29,0,0,1,.09,2.26q-2.26,6.13-4.15,10.33t-3.34,7.49a53.34,53.34,0,0,0-2.35,6.32,31.84,31.84,0,0,0-1.17,6.81,2.58,2.58,0,0,0,.09.63,1.19,1.19,0,0,0,.4.64,1.44,1.44,0,0,0,1,.27,4.24,4.24,0,0,0,1.63-.45,31,31,0,0,0,6.27-4.43,41.78,41.78,0,0,0,7.17-8.39c.91-1.32,1.73-2.63,2.49-3.93s1.48-2.54,2.21-3.74a1,1,0,0,1,.76-.5,1.39,1.39,0,0,1,.91.23,1.29,1.29,0,0,1,.54.72,1.4,1.4,0,0,1-.23,1.08l-4.69,7.85C386.63,202.7,385.48,204.34,384,206.29Z"/><path class="cls-2" d="M407.14,230.06q4.16,2.07,8.31,4.41a62.62,62.62,0,0,0,9.74,4.32c.42.12.36.59-.18,1.43a9,9,0,0,1-2.39,2.39,11,11,0,0,1-3.65,1.66,5,5,0,0,1-4.07-.72c-2.28-1.38-4.39-2.7-6.31-4s-3.76-2.4-5.51-3.41a78,78,0,0,1-5.37,6.79,33.88,33.88,0,0,1-6,5.4,27.87,27.87,0,0,1-7.22,3.6,29.54,29.54,0,0,1-8.71,1.39,30.15,30.15,0,0,1-5.19-.45,14.63,14.63,0,0,1-4.69-1.66,10.63,10.63,0,0,1-3.52-3.29,10.22,10.22,0,0,1-1.58-5.22,13.37,13.37,0,0,1,1.72-7.33,18.71,18.71,0,0,1,5.19-5.85,25.55,25.55,0,0,1,7.62-3.87,29,29,0,0,1,8.94-1.39q2.79,0,5,.18a34,34,0,0,1,4.15.58c1.29.27,2.53.59,3.7.95s2.39.75,3.65,1.17c1.33-2.7,2.56-5.41,3.71-8.12s2.31-5.32,3.52-7.85a35.39,35.39,0,0,1-6.23,5.15,10.71,10.71,0,0,1-6.41,1.89,9.56,9.56,0,0,1-9.12-5.77,13.47,13.47,0,0,1-1.12-4.7,19,19,0,0,1,.13-4.06,29.85,29.85,0,0,1,2-6.95,43.35,43.35,0,0,1,4-7.53,49,49,0,0,1,5.64-7.13,35,35,0,0,1,6.86-5.69,25,25,0,0,1,7.62-3.25,16.48,16.48,0,0,1,8.13.14,6.33,6.33,0,0,1,2.93,1.76,8.75,8.75,0,0,1,1.76,2.88,13.89,13.89,0,0,1,.81,3.61,27.5,27.5,0,0,1,.09,3.84,1.2,1.2,0,0,1-.45,1,1.78,1.78,0,0,1-.95.41,1,1,0,0,1-.85-.32,1.47,1.47,0,0,1-.36-1.08,20.91,20.91,0,0,1-.32-2.3,10.48,10.48,0,0,0-.63-2.71,6,6,0,0,0-1.58-2.3,4.86,4.86,0,0,0-3.16-1.08,10.85,10.85,0,0,0-4.92,1,18.51,18.51,0,0,0-4.56,3,30.47,30.47,0,0,0-4.06,4.37,48,48,0,0,0-3.43,5.15,48.87,48.87,0,0,0-2.66,5.32,42,42,0,0,0-1.76,4.92,24.05,24.05,0,0,0-.72,3.7,11.11,11.11,0,0,0,.18,4,4.64,4.64,0,0,0,1.89,2.84c1,.67,2.47.76,4.52.27a7.76,7.76,0,0,0,3-1.62,34.76,34.76,0,0,0,3.52-3.21q1.81-1.85,3.57-4t3.11-4.06q1.45-3.16,2.71-6.28a18.65,18.65,0,0,0,1.44-5.46,3.31,3.31,0,0,1,2.58.18,12.24,12.24,0,0,1,3.2,1.85,10.57,10.57,0,0,1,2.48,2.8,3.36,3.36,0,0,1,.41,3Zm-26.35,19.6a24.42,24.42,0,0,0,9.7-6.41,51.14,51.14,0,0,0,7.18-10,35.52,35.52,0,0,0-6.32-2.21,32.24,32.24,0,0,0-7-.85,31.84,31.84,0,0,0-6.95.63,26.41,26.41,0,0,0-6.77,2.25,15.89,15.89,0,0,0-5.05,3.88,7.88,7.88,0,0,0-1.9,5.51,7.14,7.14,0,0,0,1.9,5,10.1,10.1,0,0,0,4.37,2.62,15.82,15.82,0,0,0,5.51.58A20,20,0,0,0,380.79,249.66Z"/></g></g></svg>