<svg xmlns="http://www.w3.org/2000/svg" viewBox="0 0 311.23 118.15"><defs><style>.cls-1{fill:#008541;}.cls-2{fill:#f6921e;}.cls-3{fill:#231f20;}.cls-4{fill:#b1b3b5;}</style></defs><title>Asset 1</title><g id="Layer_2" data-name="Layer 2"><g id="Layer_1-2" data-name="Layer 1"><path class="cls-1" d="M19.28,84.5H0a5.82,5.82,0,0,0,.26-1.77V48.33A6.29,6.29,0,0,0,0,46.49H6.86a6.3,6.3,0,0,0-.25,1.84V81.44H17.36a7.15,7.15,0,0,0,1.92-.24Z"/><path class="cls-1" d="M38.32,80.51a13.38,13.38,0,0,1-3.26,3,11.58,11.58,0,0,1-6,1.53,7.64,7.64,0,0,1-5.51-2A8.51,8.51,0,0,1,21,76.53a8.06,8.06,0,0,1,3.65-7.24,15.17,15.17,0,0,1,3.06-1.61c.95-.37,3.11-1.05,6.5-2.09a6.73,6.73,0,0,0,3-1.58,3.48,3.48,0,0,0,.88-2.53,3.73,3.73,0,0,0-1.5-3.09,6.12,6.12,0,0,0-3.92-1.18,9.83,9.83,0,0,0-3.72.67,19.4,19.4,0,0,0-4,2.51L24,56.6a28.51,28.51,0,0,1,5.25-2,21.57,21.57,0,0,1,5.08-.54,12.16,12.16,0,0,1,7.12,1.8A5.89,5.89,0,0,1,44,61V78.62c0,1.72.58,2.59,1.75,2.59a3.87,3.87,0,0,0,2-.94v3.29A8.41,8.41,0,0,1,43.28,85,4.78,4.78,0,0,1,40,84a6.61,6.61,0,0,1-1.67-3.52m-.2-13.72c-.74.41-1.27.69-1.63.84s-1.81.71-4.41,1.69a8.57,8.57,0,0,0-4.2,2.85A6.58,6.58,0,0,0,26.68,76,5.38,5.38,0,0,0,28,79.77a4.52,4.52,0,0,0,3.52,1.44,6.19,6.19,0,0,0,5.37-2.83,6.64,6.64,0,0,0,1.22-3.85Z"/><path class="cls-1" d="M51.56,54.81h5.92V59a10.93,10.93,0,0,1,2.71-3.07,11,11,0,0,1,6.48-1.79c3.38,0,5.93,1,7.68,3.09A8.35,8.35,0,0,1,76,62.72V82.66a6.83,6.83,0,0,0,.23,1.84H69.93a6.07,6.07,0,0,0,.23-1.84V63.58a5.19,5.19,0,0,0-1.47-3.92,5.84,5.84,0,0,0-4.16-1.39,6.52,6.52,0,0,0-5.09,1.89,7.49,7.49,0,0,0-1.8,5.16V82.66a7.79,7.79,0,0,0,.23,1.84H51.56a7.23,7.23,0,0,0,.23-1.84v-26a7.74,7.74,0,0,0-.23-1.81"/><path class="cls-1" d="M89.44,69.21V82.66a7.48,7.48,0,0,0,.22,1.84H83.35a7.48,7.48,0,0,0,.22-1.84V45.36a7.55,7.55,0,0,0-.22-1.84h6.31a7.09,7.09,0,0,0-.22,1.84V66.92l9.71-10.64a9.23,9.23,0,0,0,1-1.47h4.71a14.91,14.91,0,0,0-1.67,1.59l-9,9.43L107.78,83a10,10,0,0,0,1.45,1.5H101.7l-1.15-1.69Z"/><path class="cls-1" d="M126.52,80.51a13.75,13.75,0,0,1-3.26,3,11.65,11.65,0,0,1-6,1.53,7.66,7.66,0,0,1-5.53-2,8.51,8.51,0,0,1-2.56-6.49,8.06,8.06,0,0,1,3.65-7.24,15.17,15.17,0,0,1,3.06-1.61c1-.37,3.12-1.05,6.5-2.09a6.63,6.63,0,0,0,3-1.58,3.45,3.45,0,0,0,.9-2.53,3.78,3.78,0,0,0-1.5-3.09,6.19,6.19,0,0,0-3.93-1.18,9.71,9.71,0,0,0-3.71.67,18.89,18.89,0,0,0-4,2.51l-1-3.79a28.25,28.25,0,0,1,5.25-2,21.36,21.36,0,0,1,5.07-.54,12.19,12.19,0,0,1,7.13,1.8,5.9,5.9,0,0,1,2.51,5.1V78.62c0,1.72.58,2.59,1.76,2.59a3.85,3.85,0,0,0,1.94-.94v3.29A8.41,8.41,0,0,1,131.47,85a4.79,4.79,0,0,1-3.29-1,6.61,6.61,0,0,1-1.66-3.52m-.2-13.72q-1.11.61-1.62.84c-.34.14-1.83.71-4.43,1.69a8.62,8.62,0,0,0-4.2,2.85,6.58,6.58,0,0,0-1.2,3.79,5.46,5.46,0,0,0,1.32,3.81,4.58,4.58,0,0,0,3.53,1.44,6.22,6.22,0,0,0,5.38-2.83,6.64,6.64,0,0,0,1.22-3.85Z"/><path class="cls-1" d="M140.21,46.49h12.84a12.89,12.89,0,0,1,7.62,2.07c2.22,1.59,3.33,4,3.33,7.32s-1.34,5.87-4,7.35a19.06,19.06,0,0,1-3.61,1.4,13.27,13.27,0,0,1,4.18,1.44q4.23,2.49,4.23,8.05a9.55,9.55,0,0,1-4.21,8.4,11.36,11.36,0,0,1-6.68,2H140.21a5.66,5.66,0,0,0,.24-1.87V48.31a5.21,5.21,0,0,0-.24-1.82m6.6,17.07h2.74a9.58,9.58,0,0,0,5.51-1.31q2.64-1.8,2.64-6.31c0-4.38-2.3-6.6-6.85-6.6h-4Zm0,18h4.52c4.64,0,7-2.41,7-7.28,0-2.84-.83-5-2.5-6.34a6.8,6.8,0,0,0-2.51-1.31,14.5,14.5,0,0,0-3.66-.38h-2.82Z"/><path class="cls-1" d="M185.92,74.84a13.12,13.12,0,0,1-3.27,2.34,14,14,0,0,1-6,1.2,9,9,0,0,1-5.53-1.57A6.3,6.3,0,0,1,172.26,66a17.52,17.52,0,0,1,3.06-1.27c1-.28,3.11-.82,6.51-1.63a7.38,7.38,0,0,0,3-1.24,2.39,2.39,0,0,0,.89-2,2.76,2.76,0,0,0-1.49-2.42,7.43,7.43,0,0,0-3.93-.92,12,12,0,0,0-3.71.52,20.1,20.1,0,0,0-4,2l-1-3a33.78,33.78,0,0,1,5.25-1.54,27.43,27.43,0,0,1,5.08-.42,14.9,14.9,0,0,1,7.13,1.41,4.37,4.37,0,0,1,2.49,4V73.36c0,1.35.6,2,1.77,2a4.26,4.26,0,0,0,1.95-.73v2.58a10,10,0,0,1-4.42,1.15,5.71,5.71,0,0,1-3.29-.78,4.91,4.91,0,0,1-1.66-2.76m-.21-10.77c-.74.32-1.28.54-1.61.65s-1.83.56-4.42,1.33a9,9,0,0,0-4.21,2.24,4.41,4.41,0,0,0-1.2,3,3.78,3.78,0,0,0,1.33,3,5.24,5.24,0,0,0,3.52,1.12,6.8,6.8,0,0,0,5.37-2.21,4.5,4.5,0,0,0,1.22-3Z"/><path class="cls-1" d="M199.14,54.81h5.94V59a10.75,10.75,0,0,1,2.69-3.07,11.11,11.11,0,0,1,6.5-1.79c3.35,0,5.92,1,7.67,3.09a8.34,8.34,0,0,1,1.66,5.52V82.66a8.26,8.26,0,0,0,.22,1.84h-6.3a6.11,6.11,0,0,0,.22-1.84V63.58a5.14,5.14,0,0,0-1.46-3.92,5.87,5.87,0,0,0-4.18-1.39A6.49,6.49,0,0,0,207,60.16a7.49,7.49,0,0,0-1.8,5.16V82.66a7.3,7.3,0,0,0,.23,1.84h-6.32a6.43,6.43,0,0,0,.23-1.84v-26a6.81,6.81,0,0,0-.23-1.81"/><path class="cls-1" d="M231.33,87.32,229.88,83l6.38-4.64a14.35,14.35,0,0,1-4-3.1c-1.63-1.9-2.45-4.54-2.45-7.9q0-6.46,3.73-10a13.05,13.05,0,0,1,9.28-3.26c.63,0,1.64,0,3,.11a4.15,4.15,0,0,0,2-1.82,7.08,7.08,0,0,0,.89-3.17h5.54a6.68,6.68,0,0,1-1.17,3.17,13.39,13.39,0,0,1-3.42,2.71,11.53,11.53,0,0,1,4,3.1A13.54,13.54,0,0,1,256.58,67a12.4,12.4,0,0,1-3.18,8.88,12,12,0,0,1-6.87,3.46c-.6.09-1.82.23-3.67.42a6.81,6.81,0,0,0-3,1L234.46,84a54.88,54.88,0,0,1,11.63-1.85A20.71,20.71,0,0,1,254,83.57a6.41,6.41,0,0,1,2.68,2,4.56,4.56,0,0,1,1,2.8c0,2-1.07,3.46-3.21,4.55s-5.12,1.64-9,1.64A51.56,51.56,0,0,1,231,92V90.84a45.53,45.53,0,0,0,11.53,1.77,13.52,13.52,0,0,0,5.6-1c1.45-.65,2.18-1.54,2.18-2.68s-.78-1.89-2.3-2.51a17.13,17.13,0,0,0-6.21-.93,35.93,35.93,0,0,0-10.47,1.81m11.86-30.15a6,6,0,0,0-5.43,2.75,12.72,12.72,0,0,0-1.67,6.88c0,3.18.61,5.65,1.82,7.37a6,6,0,0,0,5.22,2.59,5.9,5.9,0,0,0,5.36-2.69,13.64,13.64,0,0,0,1.77-7.25,11.83,11.83,0,0,0-1.84-7.08,6.23,6.23,0,0,0-5.23-2.57"/><path class="cls-1" d="M268.27,43.52a6.88,6.88,0,0,0-.22,1.84v37.3a7.48,7.48,0,0,0,.22,1.84H262a7.8,7.8,0,0,0,.21-1.84V45.36a7.56,7.56,0,0,0-.21-1.84Z"/><path class="cls-1" d="M290.31,80.51a13.38,13.38,0,0,1-3.26,3,11.6,11.6,0,0,1-6,1.53,7.63,7.63,0,0,1-5.52-2A8.47,8.47,0,0,1,273,76.53a8,8,0,0,1,3.66-7.24,14.54,14.54,0,0,1,3-1.61c1-.37,3.13-1.05,6.51-2.09a6.63,6.63,0,0,0,3-1.58,3.45,3.45,0,0,0,.91-2.53,3.74,3.74,0,0,0-1.52-3.09,6.16,6.16,0,0,0-3.92-1.18,9.88,9.88,0,0,0-3.73.67,19.38,19.38,0,0,0-4,2.51l-1-3.79a28.25,28.25,0,0,1,5.25-2,21.57,21.57,0,0,1,5.08-.54,12.18,12.18,0,0,1,7.12,1.8A5.89,5.89,0,0,1,296,61V78.62c0,1.72.58,2.59,1.74,2.59a3.82,3.82,0,0,0,2-.94v3.29A8.43,8.43,0,0,1,295.28,85a4.77,4.77,0,0,1-3.3-1,6.76,6.76,0,0,1-1.67-3.52m-.18-13.72c-.75.41-1.3.69-1.64.84s-1.82.71-4.41,1.69a8.64,8.64,0,0,0-4.22,2.85A6.5,6.5,0,0,0,278.67,76,5.46,5.46,0,0,0,280,79.77a4.61,4.61,0,0,0,3.53,1.44,6.2,6.2,0,0,0,5.38-2.83,6.73,6.73,0,0,0,1.24-3.85Z"/><path class="cls-2" d="M291.68,40.11A165.8,165.8,0,0,0,91.9,27.65,199.9,199.9,0,0,1,291.68,40.11"/><polygon class="cls-3" points="228.38 117.67 228.38 105.53 235.15 105.53 235.15 107.2 230.35 107.2 230.35 110.23 235.15 110.23 235.15 111.97 230.35 111.97 230.35 117.67 228.38 117.67"/><rect class="cls-3" x="237.32" y="105.53" width="1.97" height="12.15"/><path class="cls-3" d="M242.14,117.67V105l7.73,7.44c.21.21.42.43.63.67s.45.51.69.81v-8.42H253v12.62l-7.87-7.57a6.15,6.15,0,0,1-.61-.64,7.72,7.72,0,0,1-.56-.72v8.45Z"/><path class="cls-3" d="M263.83,117.67l-1.39-3.14h-4.82l-1.4,3.14h-2.07L260,105l5.89,12.64Zm-5.46-4.77h3.38l-1.25-2.78c-.06-.17-.14-.37-.23-.6l-.22-.78c-.06.27-.14.52-.21.75s-.15.45-.23.63Z"/><path class="cls-3" d="M267.05,117.67V105l7.72,7.44c.22.21.44.43.65.67s.44.51.68.81v-8.42h1.82v12.62L270,110.58a7.21,7.21,0,0,1-.59-.64,7.83,7.83,0,0,1-.57-.72v8.45Z"/><path class="cls-3" d="M290.48,108.48a5.82,5.82,0,0,0-1.78-1.07,5.46,5.46,0,0,0-2-.36,4.35,4.35,0,0,0-3.24,1.27,4.55,4.55,0,0,0-1.25,3.32,4.45,4.45,0,0,0,1.22,3.25,4,4,0,0,0,3.06,1.27,5.88,5.88,0,0,0,2.06-.37,6.61,6.61,0,0,0,1.88-1.16v2.22a6.17,6.17,0,0,1-1.74.87,7,7,0,0,1-2,.27,7.17,7.17,0,0,1-2.58-.45,6,6,0,0,1-3.45-3.4,6.85,6.85,0,0,1-.48-2.52,6.75,6.75,0,0,1,.48-2.51,6.14,6.14,0,0,1,3.46-3.42,6.81,6.81,0,0,1,2.53-.46,6.65,6.65,0,0,1,2.05.31,6.86,6.86,0,0,1,1.88.93Z"/><polygon class="cls-3" points="292.91 117.67 292.91 105.53 299.69 105.53 299.69 107.2 294.89 107.2 294.89 110.25 299.69 110.25 299.69 111.98 294.89 111.98 294.89 115.91 299.69 115.91 299.69 117.67 292.91 117.67"/><path class="cls-4" d="M297.53,32.84A165.76,165.76,0,0,0,97.39,36.58a200,200,0,0,1,200.14-3.74"/><path class="cls-3" d="M297.28,49V42.25h-2.46v-1.6h7v1.6h-2.46V49Z"/><path class="cls-3" d="M311.23,49h-2.08V43.47L307.63,47h-1.42l-1.52-3.56V49h-2V40.65h2.4L307,44.77l1.84-4.12h2.42Z"/></g></g></svg>